<svg baseProfile="full" xmlns="http://www.w3.org/2000/svg" width="164.88" height="164.88" viewBox="0 0 282 282"><style>@media (prefers-color-scheme:dark){#bg{fill:#222}.fl{fill-opacity:.3}.fll{fill-opacity:.4}.pt{fill:#eee}}</style><g stroke-miterlimit="10" stroke-linecap="square"><clipPath id="clip58574fe5-9b0c-474e-8bf8-3e267ad35188"><path d="M0 0v282h282V0z"/></clipPath><g fill="#f4f4e0" clip-path="url(#clip1)"><path id="bg" d="M0 0h282v282H0V0z"/></g><g id="layer0"><clipPath id="clip392c3719-c3b3-4b31-a15c-e053b2330193"><path d="M0 0v282h282V0z"/></clipPath><g fill-opacity=".098" fill-rule="evenodd" fill="#930" clip-path="url(#clip2)"><path class="fll" d="M79.089 198.32 166.32 60.306l-62.49-33.852z"/></g><clipPath id="clip16dd3f19-c325-4970-9217-0c2892f2a53e"><path d="M0 0v282h282V0z"/></clipPath><g fill-opacity=".247" fill="#069" clip-path="url(#clip3)"><path class="fll" d="M270.31 159.71c0 54.96-44.55 99.51-99.51 99.51-54.96 0-99.507-44.55-99.507-99.51 0-54.95 44.547-99.504 99.507-99.504 54.96 0 99.51 44.554 99.51 99.504z"/></g><clipPath id="clipd20dce0c-a053-416b-9601-3ad7ff9b049b"><path d="M0 0v282h282V0z"/></clipPath><g stroke-linejoin="round" stroke-width="2.5" stroke-linecap="round" fill="none" stroke-opacity=".698" stroke="#069" clip-path="url(#clip4)"><path d="M270.31 159.71c0 54.96-44.55 99.51-99.51 99.51-54.96 0-99.507-44.55-99.507-99.51 0-54.95 44.547-99.504 99.507-99.504 54.96 0 99.51 44.554 99.51 99.504z"/></g><clipPath id="clipc24e94cf-a261-4232-8f3e-1c371c4bc257"><path d="M0 0v282h282V0z"/></clipPath><g fill-opacity=".149" fill="#390" clip-path="url(#clip5)"><path class="fl" d="M184.26 113.22c0 48.06-38.96 87.02-87.014 87.02-48.058 0-87.016-38.96-87.016-87.02 0-48.057 38.958-87.015 87.016-87.015 48.054 0 87.014 38.958 87.014 87.015z"/></g><clipPath id="clip58c9e428-306c-439b-b98c-a1c70bc80a26"><path d="M0 0v282h282V0z"/></clipPath><g stroke-linejoin="round" stroke-width="2.5" stroke-linecap="round" fill="none" stroke-opacity=".698" stroke="#390" clip-path="url(#clip6)"><path d="M184.26 113.22c0 48.06-38.96 87.02-87.014 87.02-48.058 0-87.016-38.96-87.016-87.02 0-48.057 38.958-87.015 87.016-87.015 48.054 0 87.014 38.958 87.014 87.015z"/></g><clipPath id="clip7d266ced-99e1-4c68-9b69-8fb6f3cd6d23"><path d="M0 0v282h282V0z"/></clipPath><g stroke-linejoin="round" stroke-width="2.5" stroke-linecap="round" fill="none" stroke-opacity=".698" stroke="#930" clip-path="url(#clip7)"><path d="M79.089 198.32 166.32 60.306"/></g><clipPath id="clipe7f45fdc-38cc-44e4-ab0a-198ee0e94a50"><path d="M0 0v282h282V0z"/></clipPath><g stroke-linejoin="round" stroke-width="2.5" stroke-linecap="round" fill="none" stroke-opacity=".698" stroke="#930" clip-path="url(#clip8)"><path d="m166.32 60.306-62.49-33.852"/></g><clipPath id="clip5671c1ac-b126-4f1f-aad7-96a66cec1547"><path d="M0 0v282h282V0z"/></clipPath><g stroke-linejoin="round" stroke-width="2.5" stroke-linecap="round" fill="none" stroke-opacity=".698" stroke="#930" clip-path="url(#clip9)"><path d="M103.83 26.454 79.089 198.32"/></g><clipPath id="clip3f745346-fffa-4267-bb2c-f7283b54f32a"><path d="M0 0v282h282V0z"/></clipPath><g stroke="#000" clip-path="url(#clip10)"><path class="pt" d="M83.089 198.32a4 4 0 1 1-8 0 4 4 0 0 1 8 0z"/></g><clipPath id="clip41477727-d081-436a-a39d-eb76e43dde36"><path d="M0 0v282h282V0z"/></clipPath><g stroke="#000" clip-path="url(#clip12)"><path class="pt" d="M170.32 60.306c0 2.21-1.79 4-4 4s-4-1.79-4-4a4 4 0 1 1 8 0z"/></g><clipPath id="clipa959cebd-94f9-4f62-a01e-2ca33d60c5db"><path d="M0 0v282h282V0z"/></clipPath><g stroke="#000" clip-path="url(#clip14)"><path class="pt" d="M107.83 26.454a4.002 4.002 0 0 1-8.003 0 4.002 4.002 0 0 1 8.003 0z"/></g><clipPath id="clip40a3bf3e-3db4-4bc2-b859-2958eaa4e268"><path d="M0 0v282h282V0z"/></clipPath><g stroke="#000" clip-path="url(#clip16)"><path class="pt" d="M130.12 70.803a4 4 0 1 1-8 0 4 4 0 0 1 8 0z"/></g><clipPath id="clipa5a0af56-e698-4687-ab93-0cdad0a3df3e"><path d="M0 0v282h282V0z"/></clipPath><g stroke="#000" clip-path="url(#clip18)"><path class="pt" d="M174.8 159.71c0 2.21-1.79 4-4 4s-4-1.79-4-4 1.79-4 4-4 4 1.79 4 4z"/></g><clipPath id="clip78ef8e8b-83f0-4ca9-977f-03d62519f8a9"><path d="M0 0v282h282V0z"/></clipPath><g stroke="#000" clip-path="url(#clip20)"><path class="pt" d="M219.48 248.62c0 2.21-1.79 4-4 4s-4-1.79-4-4 1.79-4 4-4 4 1.79 4 4z"/></g></g></g></svg>