<svg xmlns="http://www.w3.org/2000/svg" style="display:none;">
  <symbol id="telegram" viewBox="0 0 16 16" fill="currentColor" title="Telegram">
    <path d="M16 8A8 8 0 1 1 0 8a8 8 0 0 1 16 0zM8.287 5.906c-.778.324-2.334.994-4.666 2.01-.378.15-.577.298-.595.442-.03.243.275.339.69.47l.175.055c.408.133.958.288 1.243.294.26.006.549-.1.868-.32 2.179-1.471 3.304-2.214 3.374-2.23.05-.012.12-.026.166.016.047.041.042.12.037.141-.03.129-1.227 1.241-1.846 1.817-.193.18-.33.307-.358.336a8.154 8.154 0 0 1-.188.186c-.38.366-.664.64.015 1.088.327.216.589.393.85.571.284.194.568.387.936.629.093.06.183.125.27.187.331.236.63.448.997.414.214-.02.435-.22.547-.82.265-1.417.786-4.486.906-5.751a1.426 1.426 0 0 0-.013-.315.337.337 0 0 0-.114-.217.526.526 0 0 0-.31-.093c-.3.005-.763.166-2.984 1.09z"/>
  </symbol>
  <symbol id="rss-fill" viewBox="0 0 16 16" fill="currentColor" title="RSS">
    <path d="M2 0a2 2 0 0 0-2 2v12a2 2 0 0 0 2 2h12a2 2 0 0 0 2-2V2a2 2 0 0 0-2-2H2zm1.5 2.5c5.523 0 10 4.477 10 10a1 1 0 1 1-2 0 8 8 0 0 0-8-8 1 1 0 0 1 0-2zm0 4a6 6 0 0 1 6 6 1 1 0 1 1-2 0 4 4 0 0 0-4-4 1 1 0 0 1 0-2zm.5 7a1.5 1.5 0 1 1 0-3 1.5 1.5 0 0 1 0 3z"/>
  </symbol>
  <symbol id="sun-fill" viewBox="0 0 16 16" fill="currentColor" title="Light">
    <path d="M8 12a4 4 0 1 0 0-8 4 4 0 0 0 0 8M8 0a.5.5 0 0 1 .5.5v2a.5.5 0 0 1-1 0v-2A.5.5 0 0 1 8 0m0 13a.5.5 0 0 1 .5.5v2a.5.5 0 0 1-1 0v-2A.5.5 0 0 1 8 13m8-5a.5.5 0 0 1-.5.5h-2a.5.5 0 0 1 0-1h2a.5.5 0 0 1 .5.5M3 8a.5.5 0 0 1-.5.5h-2a.5.5 0 0 1 0-1h2A.5.5 0 0 1 3 8m10.657-5.657a.5.5 0 0 1 0 .707l-1.414 1.415a.5.5 0 1 1-.707-.708l1.414-1.414a.5.5 0 0 1 .707 0m-9.193 9.193a.5.5 0 0 1 0 .707L3.05 13.657a.5.5 0 0 1-.707-.707l1.414-1.414a.5.5 0 0 1 .707 0m9.193 2.121a.5.5 0 0 1-.707 0l-1.414-1.414a.5.5 0 0 1 .707-.707l1.414 1.414a.5.5 0 0 1 0 .707M4.464 4.465a.5.5 0 0 1-.707 0L2.343 3.05a.5.5 0 1 1 .707-.707l1.414 1.414a.5.5 0 0 1 0 .708"/>
  </symbol>
  <symbol id="moon-stars-fill" viewBox="0 0 16 16" fill="currentColor" title="Dark">
    <path d="M6 .278a.77.77 0 0 1 .08.858 7.2 7.2 0 0 0-.878 3.46c0 4.021 3.278 7.277 7.318 7.277q.792-.001 1.533-.16a.79.79 0 0 1 .81.316.73.73 0 0 1-.031.893A8.35 8.35 0 0 1 8.344 16C3.734 16 0 12.286 0 7.71 0 4.266 2.114 1.312 5.124.06A.75.75 0 0 1 6 .278"/>
    <path d="M10.794 3.148a.217.217 0 0 1 .412 0l.387 1.162c.173.518.579.924 1.097 1.097l1.162.387a.217.217 0 0 1 0 .412l-1.162.387a1.73 1.73 0 0 0-1.097 1.097l-.387 1.162a.217.217 0 0 1-.412 0l-.387-1.162A1.73 1.73 0 0 0 9.31 6.593l-1.162-.387a.217.217 0 0 1 0-.412l1.162-.387a1.73 1.73 0 0 0 1.097-1.097zM13.863.099a.145.145 0 0 1 .274 0l.258.774c.115.346.386.617.732.732l.774.258a.145.145 0 0 1 0 .274l-.774.258a1.16 1.16 0 0 0-.732.732l-.258.774a.145.145 0 0 1-.274 0l-.258-.774a1.16 1.16 0 0 0-.732-.732l-.774-.258a.145.145 0 0 1 0-.274l.774-.258c.346-.115.617-.386.732-.732z"/>
  </symbol>
  <symbol id="circle-half" viewBox="0 0 16 16" fill="currentColor" title="Half">
    <path d="M8 15A7 7 0 1 0 8 1zm0 1A8 8 0 1 1 8 0a8 8 0 0 1 0 16"/>
  </symbol>
</svg>
