<?xml version="1.0" encoding="UTF-8"?>
<svg xmlns="http://www.w3.org/2000/svg" xmlns:xlink="http://www.w3.org/1999/xlink" width="161pt" height="160pt" viewBox="0 0 161 160" version="1.1">
<g id="surface1">
<path style=" stroke:none;fill-rule:nonzero;fill:rgb(92.861938%,8.792114%,22.244263%);fill-opacity:1;" d="M 80.058594 88.792969 C 79.269531 90.414062 78.53125 91.917969 77.808594 93.429688 C 74.496094 100.324219 71.167969 107.210938 67.894531 114.125 C 67.320312 115.339844 66.980469 116.664062 66.488281 118.046875 L 60.761719 118.046875 C 61.339844 117.078125 61.941406 116.175781 62.4375 115.222656 C 63.734375 112.714844 65.003906 110.195312 66.242188 107.660156 C 70.019531 99.945312 73.777344 92.222656 77.539062 84.5 C 77.632812 84.304688 77.710938 84.101562 77.832031 83.828125 C 77.527344 83.808594 77.292969 83.785156 77.058594 83.785156 C 70.003906 83.785156 62.949219 83.785156 55.894531 83.777344 C 55.433594 83.777344 55.160156 83.847656 54.933594 84.328125 C 50.054688 94.566406 45.136719 104.78125 40.269531 115.023438 C 39.828125 115.945312 39.648438 116.992188 39.320312 118.0625 L 33.492188 118.0625 C 34.058594 117.140625 34.65625 116.300781 35.121094 115.386719 C 36.6875 112.324219 38.222656 109.242188 39.734375 106.152344 C 43.761719 97.925781 47.773438 89.691406 51.785156 81.453125 C 57.289062 70.171875 62.785156 58.882812 68.285156 47.597656 C 68.703125 46.738281 69.140625 45.882812 69.660156 44.839844 C 73.742188 55.1875 77.757812 65.359375 81.832031 75.691406 C 86.871094 65.367188 91.832031 55.195312 96.886719 44.835938 C 97.429688 46.191406 97.90625 47.363281 98.367188 48.539062 C 107.015625 70.457031 115.652344 92.371094 124.316406 114.28125 C 124.824219 115.5625 125.511719 116.769531 126.136719 118.046875 L 117.929688 118.046875 C 117.609375 114.351562 115.863281 111.109375 114.574219 107.730469 C 111.535156 99.753906 108.40625 91.808594 105.300781 83.820312 L 85.007812 83.820312 C 89.683594 95.246094 93.871094 106.796875 98.726562 118.058594 L 90.695312 118.058594 C 90.269531 113.925781 88.289062 110.320312 86.890625 106.535156 C 84.773438 100.804688 82.515625 95.121094 80.316406 89.421875 C 80.25 89.25 80.175781 89.082031 80.058594 88.792969 M 104.070312 81.070312 C 101.046875 73.402344 98.054688 65.820312 95.042969 58.195312 C 93.398438 60.855469 83.902344 80.476562 83.984375 81.070312 Z M 76.878906 81.066406 C 73.878906 73.417969 70.898438 65.828125 67.875 58.128906 C 64.066406 65.835938 60.320312 73.414062 56.539062 81.066406 L 76.878906 81.066406 "/>
<path style=" stroke:none;fill-rule:nonzero;fill:rgb(92.861938%,8.792114%,22.244263%);fill-opacity:1;" d="M 69.429688 21.527344 C 72.785156 21.570312 75.78125 22.566406 78.152344 25.015625 C 81.445312 28.410156 81.320312 33.472656 77.867188 36.695312 C 75.066406 39.304688 71.683594 40.203125 67.914062 39.824219 C 64.992188 39.53125 62.449219 38.425781 60.453125 36.246094 C 56.78125 32.234375 57.871094 26.96875 61.660156 24.046875 C 63.949219 22.285156 66.558594 21.507812 69.429688 21.527344 M 63.320312 30.445312 C 63.320312 32.222656 63.695312 33.558594 64.640625 34.9375 C 66.886719 38.210938 70.734375 38.679688 73.363281 36.003906 C 76.175781 33.140625 76.359375 28.570312 73.800781 25.472656 C 71.914062 23.1875 68.683594 22.632812 66.144531 24.511719 C 64.152344 25.980469 63.3125 28.015625 63.320312 30.445312 "/>
<path style=" stroke:none;fill-rule:nonzero;fill:rgb(13.729858%,12.159729%,12.548828%);fill-opacity:1;" d="M 30.4375 122.320312 C 29.882812 122.320312 29.574219 122.800781 29.574219 123.320312 C 29.574219 123.78125 29.921875 124.242188 30.457031 124.242188 C 31.015625 124.242188 31.339844 123.820312 31.339844 123.28125 C 31.339844 122.78125 31.015625 122.320312 30.457031 122.320312 Z M 32.050781 133.089844 L 31.035156 129.902344 C 30.785156 129.117188 30.574219 128.234375 30.382812 127.484375 L 30.34375 127.484375 C 30.152344 128.234375 29.960938 129.136719 29.726562 129.902344 L 28.730469 133.089844 Z M 30.496094 121.476562 C 31.820312 121.476562 32.550781 122.28125 32.550781 123.300781 C 32.550781 124.296875 31.742188 125.085938 30.476562 125.085938 C 29.191406 125.085938 28.402344 124.296875 28.402344 123.320312 C 28.402344 122.300781 29.152344 121.476562 30.476562 121.476562 Z M 28.347656 134.875 L 27.234375 138.542969 L 24.796875 138.542969 L 28.941406 125.605469 L 31.957031 125.605469 L 36.160156 138.542969 L 33.625 138.542969 L 32.453125 134.875 L 28.347656 134.875 "/>
<path style=" stroke:none;fill-rule:nonzero;fill:rgb(13.729858%,12.159729%,12.548828%);fill-opacity:1;" d="M 40.15625 134.683594 C 40.15625 134.875 40.171875 135.066406 40.210938 135.238281 C 40.460938 136.179688 41.285156 136.890625 42.304688 136.890625 C 43.78125 136.890625 44.683594 135.703125 44.683594 133.820312 C 44.683594 132.167969 43.898438 130.824219 42.324219 130.824219 C 41.363281 130.824219 40.5 131.515625 40.230469 132.550781 C 40.191406 132.726562 40.15625 132.9375 40.15625 133.167969 Z M 37.792969 124.914062 L 40.15625 124.914062 L 40.15625 130.480469 L 40.191406 130.480469 C 40.769531 129.578125 41.785156 128.980469 43.1875 128.980469 C 45.472656 128.980469 47.101562 130.882812 47.085938 133.722656 C 47.085938 137.082031 44.953125 138.753906 42.84375 138.753906 C 41.632812 138.753906 40.558594 138.292969 39.886719 137.140625 L 39.847656 137.140625 L 39.730469 138.542969 L 37.714844 138.542969 C 37.753906 137.90625 37.792969 136.871094 37.792969 135.910156 L 37.792969 124.914062 "/>
<path style=" stroke:none;fill-rule:nonzero;fill:rgb(13.729858%,12.159729%,12.548828%);fill-opacity:1;" d="M 50.867188 133.878906 C 50.867188 135.679688 51.75 137.042969 53.191406 137.042969 C 54.535156 137.042969 55.472656 135.71875 55.472656 133.839844 C 55.472656 132.378906 54.820312 130.710938 53.210938 130.710938 C 51.539062 130.710938 50.867188 132.320312 50.867188 133.878906 Z M 57.910156 133.78125 C 57.910156 137.21875 55.492188 138.753906 53.113281 138.753906 C 50.464844 138.753906 48.429688 136.929688 48.429688 133.933594 C 48.429688 130.863281 50.445312 128.980469 53.265625 128.980469 C 56.050781 128.980469 57.910156 130.941406 57.910156 133.78125 "/>
<path style=" stroke:none;fill-rule:nonzero;fill:rgb(13.729858%,12.159729%,12.548828%);fill-opacity:1;" d="M 70.21875 133.089844 L 69.203125 129.902344 C 68.953125 129.117188 68.742188 128.234375 68.550781 127.484375 L 68.511719 127.484375 C 68.320312 128.234375 68.128906 129.136719 67.898438 129.902344 L 66.898438 133.089844 Z M 66.515625 134.875 L 65.402344 138.542969 L 62.964844 138.542969 L 67.109375 125.605469 L 70.125 125.605469 L 74.328125 138.542969 L 71.792969 138.542969 L 70.621094 134.875 L 66.515625 134.875 "/>
<path style=" stroke:none;fill-rule:nonzero;fill:rgb(13.729858%,12.159729%,12.548828%);fill-opacity:1;" d="M 78.324219 133.300781 L 78.359375 133.300781 C 78.589844 132.9375 78.859375 132.535156 79.109375 132.207031 L 81.375 129.191406 L 84.214844 129.191406 L 80.761719 133.011719 L 84.714844 138.542969 L 81.816406 138.542969 L 79.128906 134.414062 L 78.324219 135.355469 L 78.324219 138.542969 L 75.960938 138.542969 L 75.960938 124.914062 L 78.324219 124.914062 L 78.324219 133.300781 "/>
<path style=" stroke:none;fill-rule:nonzero;fill:rgb(13.729858%,12.159729%,12.548828%);fill-opacity:1;" d="M 90.878906 133.972656 C 89.210938 133.933594 87.617188 134.300781 87.617188 135.71875 C 87.617188 136.640625 88.210938 137.0625 88.960938 137.0625 C 89.898438 137.0625 90.589844 136.449219 90.800781 135.777344 C 90.859375 135.605469 90.878906 135.414062 90.878906 135.257812 Z M 93.183594 136.296875 C 93.183594 137.140625 93.21875 137.964844 93.316406 138.542969 L 91.1875 138.542969 L 91.03125 137.507812 L 90.976562 137.507812 C 90.398438 138.234375 89.421875 138.753906 88.210938 138.753906 C 86.328125 138.753906 85.273438 137.390625 85.273438 135.96875 C 85.273438 133.609375 87.367188 132.417969 90.820312 132.4375 L 90.820312 132.285156 C 90.820312 131.667969 90.570312 130.652344 88.921875 130.652344 C 88 130.652344 87.039062 130.941406 86.40625 131.34375 L 85.945312 129.808594 C 86.636719 129.386719 87.847656 128.980469 89.324219 128.980469 C 92.320312 128.980469 93.183594 130.882812 93.183594 132.917969 L 93.183594 136.296875 "/>
<path style=" stroke:none;fill-rule:nonzero;fill:rgb(13.729858%,12.159729%,12.548828%);fill-opacity:1;" d="M 101.9375 133.089844 C 101.9375 132.898438 101.917969 132.667969 101.878906 132.476562 C 101.667969 131.554688 100.921875 130.804688 99.84375 130.804688 C 98.328125 130.804688 97.484375 132.148438 97.484375 133.894531 C 97.484375 135.605469 98.328125 136.851562 99.828125 136.851562 C 100.785156 136.851562 101.628906 136.199219 101.859375 135.183594 C 101.917969 134.972656 101.9375 134.742188 101.9375 134.492188 Z M 104.300781 124.914062 L 104.300781 135.910156 C 104.300781 136.871094 104.335938 137.90625 104.375 138.542969 L 102.265625 138.542969 L 102.167969 137.0625 L 102.128906 137.0625 C 101.574219 138.101562 100.441406 138.753906 99.078125 138.753906 C 96.851562 138.753906 95.085938 136.851562 95.085938 133.972656 C 95.066406 130.84375 97.023438 128.980469 99.269531 128.980469 C 100.554688 128.980469 101.476562 129.519531 101.898438 130.210938 L 101.9375 130.210938 L 101.9375 124.914062 L 104.300781 124.914062 "/>
<path style=" stroke:none;fill-rule:nonzero;fill:rgb(13.729858%,12.159729%,12.548828%);fill-opacity:1;" d="M 112.613281 132.878906 C 112.632812 132.015625 112.246094 130.59375 110.675781 130.59375 C 109.214844 130.59375 108.601562 131.917969 108.503906 132.878906 Z M 108.503906 134.53125 C 108.5625 136.21875 109.886719 136.949219 111.382812 136.949219 C 112.476562 136.949219 113.265625 136.792969 113.976562 136.527344 L 114.320312 138.15625 C 113.515625 138.484375 112.402344 138.753906 111.058594 138.753906 C 108.023438 138.753906 106.238281 136.871094 106.238281 134.011719 C 106.238281 131.421875 107.8125 128.980469 110.808594 128.980469 C 113.859375 128.980469 114.839844 131.476562 114.839844 133.53125 C 114.839844 133.972656 114.800781 134.320312 114.761719 134.53125 L 108.503906 134.53125 "/>
<path style=" stroke:none;fill-rule:nonzero;fill:rgb(13.729858%,12.159729%,12.548828%);fill-opacity:1;" d="M 116.742188 131.976562 C 116.742188 130.902344 116.722656 130 116.664062 129.191406 L 118.699219 129.191406 L 118.796875 130.578125 L 118.855469 130.578125 C 119.3125 129.847656 120.160156 128.980469 121.734375 128.980469 C 122.960938 128.980469 123.921875 129.671875 124.324219 130.710938 L 124.363281 130.710938 C 124.6875 130.191406 125.074219 129.808594 125.515625 129.539062 C 126.03125 129.175781 126.628906 128.980469 127.394531 128.980469 C 128.949219 128.980469 130.523438 130.039062 130.523438 133.03125 L 130.523438 138.542969 L 128.222656 138.542969 L 128.222656 133.378906 C 128.222656 131.824219 127.683594 130.902344 126.550781 130.902344 C 125.746094 130.902344 125.148438 131.476562 124.898438 132.148438 C 124.84375 132.378906 124.785156 132.667969 124.785156 132.9375 L 124.785156 138.542969 L 122.480469 138.542969 L 122.480469 133.128906 C 122.480469 131.824219 121.964844 130.902344 120.867188 130.902344 C 119.984375 130.902344 119.390625 131.59375 119.179688 132.246094 C 119.085938 132.476562 119.046875 132.746094 119.046875 133.011719 L 119.046875 138.542969 L 116.742188 138.542969 L 116.742188 131.976562 "/>
<path style=" stroke:none;fill-rule:nonzero;fill:rgb(13.729858%,12.159729%,12.548828%);fill-opacity:1;" d="M 133.023438 138.542969 L 133.023438 129.191406 L 135.402344 129.191406 L 135.402344 138.542969 Z M 135.539062 126.582031 C 135.539062 127.292969 135.019531 127.847656 134.195312 127.847656 C 133.40625 127.847656 132.890625 127.292969 132.890625 126.582031 C 132.890625 125.851562 133.425781 125.296875 134.214844 125.296875 C 135.019531 125.296875 135.519531 125.851562 135.539062 126.582031 "/>
</g>
</svg>
