<svg version="1" xmlns="http://www.w3.org/2000/svg" width="3200" height="3200" viewBox="0 0 2400.000000 2400.000000"><path d="M1406 .7c-51.6 3.5-87.1 8.1-128 16.4-132.1 27-256.1 83.4-368.5 167.9-111.3 83.6-209 193.3-285.7 321C552.6 624.6 498.1 761.9 468 899c-2.2 10.2-4.4 19.8-4.8 21.5l-.8 3-134.6.3c-111.2.2-134.8.4-135.7 1.6-.6.7-18.2 40.6-39.1 88.6-32.8 75.3-38 88-38 92.2v4.8h160.4c109.8 0 160.7.3 161.1 1 .4.6.1 10.4-.6 21.8-1.9 29.4-1.8 116.4.1 144.7.8 12.1 1.5 24.9 1.5 28.5v6.5l-123 .5-122.9.5-35.8 94c-19.6 51.7-35.7 94.8-35.8 95.7 0 1.7 8.9 1.8 173.9 1.8h173.9l1.1 3.3c.5 1.7 2.8 10.6 5.1 19.7 41 164.8 117.2 322.5 220.2 455.2 31.3 40.3 56.2 68.4 96.7 108.9 43 42.9 75.3 71 119.1 103.8 177.6 132.8 384.7 203.1 598.8 203.1 180.7 0 374.7-58.5 557.7-168.3 48-28.7 102.6-66.3 143.9-98.9l13.6-10.8v-20.2c.1-49.9-2.2-257.7-2.9-261.3l-.7-4-8.9 12.5c-34.2 48-61.4 79.9-100.6 118.5-126.1 124-289.2 202.3-472.4 227-67.4 9-144.6 10.9-207.5 4.9-177.1-16.6-338.8-87.1-477.8-208-19.9-17.3-65.6-63.1-83.4-83.6-57-65.5-100.6-131.1-139.8-210.3-23.6-47.8-38.5-84-55-133.5-10.2-30.6-17.4-55.5-16.5-57 .4-.7 202.8-1 606.5-1 576.7 0 606-.1 606.9-1.8.8-1.6 65.1-183 66.6-187.9l.6-2.3-657.8-.2-657.8-.3-.7-6c-4.4-38.3-5-148.4-.9-189.5l.6-6.5 695.4-.5 695.5-.5 36.2-92.5c24.8-63.5 35.8-92.7 35-93.2-.6-.4-323.2-.8-716.8-.8-393.6 0-715.9-.4-716.2-.8-.3-.5 1.1-7.1 3-14.8 40.8-162.2 114.5-306.2 216.9-424.1 16.7-19.2 65.1-67.5 83.2-83.1 133.7-114.5 281.9-177.9 453.3-193.8 23.4-2.2 95.3-3 122.9-1.5 138.9 7.8 265.9 42.3 383.1 104.1 112.7 59.5 207.5 140.1 285.2 242.4l12.1 15.9 1.9-4.9c7.7-19.5 71.8-201 71.8-203.3 0-1.7-.8-3.4-1.9-4.2-1.1-.8-9.7-8-19.3-16-83.6-70.3-178.3-135.4-273.3-187.9-19.9-11.1-71-36.8-91-46-137.9-62.9-265.8-96.7-397-105-14.2-.9-84.9-1.1-96.5-.3z"/></svg>